::::: Feel-Free Presents :::::


:::: Alyce.2011.DvDRip.XviD.Ac3.Feel-Free ::::


::Information::


Alyce.2011.DvDRip.XviD.Ac3.Feel-Free


Genre:Horror | Thriller
Language:English
IMDb:http://www.imdb.com/title/tt1680051/
Source:DVD Thanks!


::Details::


Format : AVI
Format/Info : Audio Video Interleave
File size : 965 MiB
Duration : 1h 29mn
Overall bit rate : 1 499 Kbps


Video
ID : 0
Format : MPEG-4 Visual
Format profile : Advanced Simple@L5
Format settings, BVOP : Yes
Format settings, QPel : No
Format settings, GMC : No warppoints
Format settings, Matrix : Default (H.263)
Muxing mode : Packed bitstream
Codec ID : XVID
Codec ID/Hint : XviD
Duration : 1h 29mn
Bit rate : 1 042 Kbps
Width : 720 pixels
Height : 400 pixels
Display aspect ratio : 16:9
Frame rate : 25.000 fps
Color space : YUV
Chroma subsampling : 4:2:0
Bit depth : 8 bits
Scan type : Progressive
Bits/(Pixel*Frame) : 0.145
Stream size : 670 MiB (69%)
Writing library : XviD 1.2.1 (UTC 2008-12-04)


Audio
ID : 1
Format : AC-3
Format/Info : Audio Coding 3
Mode extension : CM (complete main)
Codec ID : 2000
Duration : 1h 29mn
Bit rate mode : Constant
Bit rate : 448 Kbps
Channel(s) : 6 channels
Channel positions : Front: L C R, Side: L R, LFE
Sampling rate : 48.0 KHz
Bit depth : 16 bits
Stream size : 288 MiB (30%)
Alignment : Split accross interleaves
Interleave, duration : 40 ms (1.00 video frame)
Interleave, preload duration : 500 ms


::Plot::


After accidentally knocking her best friend off a roof, Alyce is haunted 
by guilt and delves into a brutal nightmare wonderland of sex, drugs and 
violence, her mind tearing itself apart a long with anyone else who gets 
in her way.


::Poster::

 
http://shareimage.org/images/94x91qkopf47162i7tkl.jpg


::Screens::

 
http://shareimage.org/images/nv9tbh7srlq3xnhwlolp.png
 
http://shareimage.org/images/wfru9x1bet2er65o93t.png
 
http://shareimage.org/images/ybjnktadsdswszhv0qvz.png


ENJOY!